<?xml version="1.0" encoding="UTF-8"?>
<svg id="Layer_2" xmlns="http://www.w3.org/2000/svg" viewBox="0 0 492.75 492.75">
  <defs>
    <style>
      .cls-1 {
        fill: #fff;
      }

      .cls-2 {
        fill: #1f2538;
      }

      .cls-2, .cls-3 {
        stroke: #231f20;
        stroke-miterlimit: 10;
      }

      .cls-3 {
        fill: #57bae9;
      }
    </style>
  </defs>
  <g id="Layer_1-2" data-name="Layer_1">
    <circle class="cls-1" cx="246.38" cy="246.38" r="246.38"/>
    <g>
      <path class="cls-2" d="M141.79,358.98c-20.3-94.76-40.53-189.22-60.76-283.68-8.88,0-17.49.05-26.1-.01-9.35-.07-15.97-5.92-16.97-14.87-1.06-9.43,5.94-17.6,15.74-18.05,12.96-.6,25.93-1.04,38.9-1.44,10.01-.31,16.28,4.68,18.4,14.58,3.72,17.37,7.35,34.76,11.03,52.14.37,1.76.86,3.49,1.51,6.08,15.97,0,31.92-.12,47.86.02,88,.78,176.01,1.63,264.01,2.45,15.31.14,21.24,6.81,19.1,22.41-7.52,54.98-15.17,109.94-22.86,164.89-1.38,9.86-6.97,15.02-17.09,15.36-30.59,1.04-61.19,1.86-91.79,2.7-50.39,1.39-100.77,2.74-151.16,4.12-.97.03-1.94.24-3.41.44,2.05,9.92,4.01,19.66,6.18,29.34.2.88,1.72,1.75,2.79,2.07,1.23.36,2.64.1,3.97.1,66.55-.07,133.1-.25,199.65-.14,16.9.03,31.84,5.28,42.02,19.79,11.55,16.46,11.71,41.25.66,58.5-10.97,17.13-31.51,26-51.84,22.39-19.68-3.49-35.61-18.91-40.27-38.97-2.2-9.47-1.2-18.78,1.86-28.4h-130.51c5.43,18.09,3.22,34.75-8.6,49.5-7.79,9.72-18.02,15.75-30.26,17.85-25.47,4.37-49.96-10.57-57.42-34.74-7.18-23.25,2.45-53.18,35.35-64.43ZM419.97,149.44c-96.93-.93-192.77-1.84-289.08-2.76,10.29,49.1,20.41,97.44,30.56,145.89,3.9,0,7.37.09,10.83-.01,29.58-.9,59.16-1.94,88.74-2.75,42.55-1.17,85.1-2.18,127.65-3.29,3.16-.08,6.37-.03,9.43-.65,1.31-.26,3.09-1.98,3.29-3.25,1.58-9.66,2.8-19.37,4.16-29.06,3.54-25.29,7.1-50.59,10.63-75.88,1.28-9.16,2.46-18.34,3.79-28.24ZM398.78,407.6c-.01-11.78-5.34-17.07-17.13-17.01-10.27.05-18.15,7.87-18.07,17.93.08,9.67,7.78,17.25,17.54,17.27,10.19.01,17.66-7.68,17.65-18.18ZM172.38,408.28c0-9.63-7.69-17.52-17.25-17.69-9.59-.17-17.92,8.03-17.94,17.66-.02,9.52,7.84,17.42,17.42,17.52,10.04.1,17.77-7.51,17.77-17.5Z"/>
      <path class="cls-3" d="M419.97,149.44c-1.33,9.9-2.52,19.08-3.79,28.24-3.52,25.3-7.09,50.59-10.63,75.88-1.36,9.69-2.58,19.4-4.16,29.06-.21,1.28-1.99,2.99-3.29,3.25-3.06.62-6.28.57-9.43.65-42.55,1.1-85.1,2.12-127.65,3.29-29.58.81-59.16,1.85-88.74,2.75-3.46.11-6.92.01-10.83.01-10.15-48.45-20.28-96.8-30.56-145.89,96.31.92,192.16,1.83,289.08,2.76Z"/>
    </g>
  </g>
</svg>